<?xml version="1.0"?>
<svg version="1.1" xmlns="http://www.w3.org/2000/svg" width="400" height="200" style=""><path fill="#" d="M16.69775390625,108.04345703125q0-1.30810546875,0.514892578125-1.934326171875t1.878662109375-0.626220703125q0.80712890625,0,1.516845703125,0.333984375t0.709716796875,1.41943359375q0.111328125,1.58642578125,0.111328125,3.325927734375t0.30615234375,3.298095703125q0.69580078125-1.14111328125,1.572509765625-2.2822265625t1.934326171875-2.03173828125t2.31005859375-1.433349609375t2.7275390625-0.542724609375q2.00390625,0,3.3955078125,0.8349609375t2.296142578125,2.1708984375t1.30810546875,3.019775390625t0.403564453125,3.381591796875q0,2.6162109375-0.793212890625,4.272216796875t-2.101318359375,2.602294921875t-2.964111328125,1.2802734375t-3.325927734375,0.333984375q-1.47509765625,0-2.75537109375-0.570556640625t-1.78125-2.156982421875q0-0.4453125,0.654052734375-0.556640625t0.932373046875-0.111328125q0.91845703125,0,1.36376953125,0.5009765625q0.333984375,0.3896484375,0.737548828125,0.793212890625t0.848876953125,0.403564453125q0.86279296875,0,1.80908203125-0.487060546875t1.739501953125-1.2802734375t1.3359375-1.878662109375t0.542724609375-2.2265625q0-0.97412109375-0.1669921875-2.42138671875t-0.570556640625-2.783203125t-1.11328125-2.31005859375t-1.795166015625-0.97412109375q-1.64208984375,0-2.964111328125,1.5029296875t-2.19873046875,3.6181640625t-1.36376953125,4.3974609375t-0.487060546875,3.81298828125t0.19482421875,3.86865234375t0.403564453125,4.856689453125t0.403564453125,4.856689453125t0.19482421875,3.86865234375q0,0.3896484375-0.320068359375,0.626220703125t-0.765380859375,0.375732421875t-0.904541015625,0.1669921875t-0.681884765625,0.02783203125q-0.75146484375,0-1.572509765625-0.1669921875t-1.127197265625-1.02978515625q-0.3896484375-1.36376953125-0.7236328125-3.882568359375t-0.598388671875-5.56640625t-0.459228515625-6.4013671875t-0.333984375-6.470947265625t-0.208740234375-5.70556640625t-0.069580078125-4.119140625z M42.822846679688,118.6474609375q0-1.58642578125,0.403564453125-3.270263671875t1.2802734375-3.03369140625t2.212646484375-2.19873046875t3.228515625-0.848876953125q1.41943359375,0,2.991943359375,0.487060546875t2.880615234375,1.3916015625t2.129150390625,2.212646484375t0.821044921875,2.92236328125q0,1.9482421875-0.709716796875,3.70166015625t-1.989990234375,3.131103515625t-2.991943359375,2.1708984375t-3.715576171875,0.793212890625q-1.64208984375,0-2.86669921875-0.598388671875t-2.045654296875-1.600341796875t-1.224609375-2.36572265625t-0.403564453125-2.89453125z M46.914155273438,118.591796875q0,0.5009765625,0.153076171875,1.47509765625t0.459228515625,1.906494140625t0.793212890625,1.6142578125t1.182861328125,0.626220703125q1.47509765625-0.1669921875,2.435302734375-0.960205078125t1.55859375-1.934326171875t0.8349609375-2.47705078125t0.236572265625-2.53271484375q0-1.53076171875-0.598388671875-2.560546875t-1.962158203125-1.669921875q0,0.0556640625,0.0556640625,0.0556640625t0.0556640625-0.0556640625l-0.69580078125-0.1669921875q-0.2783203125-0.111328125-0.681884765625-0.25048828125t-0.793212890625-0.6123046875q-1.08544921875,0.3896484375-1.683837890625,1.001953125t-0.904541015625,1.489013671875t-0.375732421875,2.101318359375t-0.069580078125,2.9501953125z M63.910341796875,127.9990234375q0-0.80712890625,0.069580078125-1.69775390625t0.125244140625-1.669921875l0.1669921875-4.1748046875q0.2783203125-5.009765625,0.681884765625-9.8525390625t0.681884765625-9.796875q0.1669921875-2.7275390625,0.25048828125-5.357666015625t0.25048828125-5.357666015625q-0.111328125-0.22265625-0.111328125-0.30615234375q0-0.3896484375,0.292236328125-0.6123046875t0.681884765625-0.375732421875t0.821044921875-0.208740234375t0.654052734375-0.0556640625l0.64013671875,0q0.86279296875,0.111328125,1.25244140625,0.542724609375t0.5009765625,1.02978515625t0.0556640625,1.2802734375t-0.0556640625,1.266357421875q0,4.03564453125-0.19482421875,8.224365234375t-0.4453125,8.4052734375t-0.459228515625,8.43310546875t-0.208740234375,8.335693359375l0,1.9482421875q0,1.30810546875-0.737548828125,1.7255859375t-2.045654296875,0.41748046875q-1.14111328125,0-2.00390625-0.5009765625t-0.86279296875-1.64208984375z M76.676059570313,118.11865234375q0-1.892578125,0.514892578125-3.64599609375t1.544677734375-3.131103515625t2.574462890625-2.19873046875t3.576416015625-0.821044921875q1.25244140625,0,2.769287109375,0.375732421875t2.852783203125,1.11328125t2.2265625,1.878662109375t0.890625,2.6162109375q0,0.69580078125-0.236572265625,1.0576171875t-0.960205078125,0.36181640625l-0.30615234375-0.0556640625q0.80712890625,2.1708984375,1.3916015625,4.453125t1.14111328125,4.564453125q0.22265625,0.4453125,0.333984375,0.793212890625t0.111328125,0.681884765625q0,0.4453125-0.25048828125,0.737548828125t-0.654052734375,0.431396484375t-0.8349609375,0.19482421875t-0.765380859375,0.0556640625q-1.19677734375,0-1.795166015625-0.41748046875t-0.86279296875-1.14111328125t-0.320068359375-1.628173828125t-0.22265625-1.822998046875q-0.333984375,1.08544921875-0.876708984375,2.115234375t-1.2802734375,1.850830078125t-1.739501953125,1.30810546875t-2.25439453125,0.487060546875q-1.8369140625,0-3.08935546875-1.0576171875t-2.017822265625-2.602294921875t-1.11328125-3.298095703125t-0.347900390625-3.25634765625z M80.628208007813,117.72900390625q0,1.02978515625,0.13916015625,2.1708984375t0.459228515625,2.25439453125t0.821044921875,2.101318359375t1.25244140625,1.739501953125q1.36376953125-1.47509765625,2.017822265625-3.59033203125t1.1689453125-4.077392578125t1.1689453125-3.36767578125t2.017822265625-1.405517578125q0.86279296875,0,1.447265625,0.30615234375q-0.2783203125-0.69580078125-0.91845703125-1.349853515625t-1.433349609375-1.19677734375t-1.64208984375-0.890625t-1.600341796875-0.347900390625q-0.22265625,0-0.514892578125,0.069580078125t-0.459228515625,0.013916015625q-1.14111328125,0.333984375-1.878662109375,1.155029296875t-1.19677734375,1.934326171875t-0.654052734375,2.2822265625t-0.19482421875,2.19873046875z M100.79724609375,117.78466796875q0-2.1708984375,0.459228515625-3.938232421875t1.461181640625-2.991943359375t2.630126953125-1.906494140625t3.966064453125-0.681884765625q1.30810546875,0,2.671875,0.347900390625t2.337890625,1.294189453125q0-0.556640625,0.111328125-2.296142578125t0.2783203125-4.049560546875t0.347900390625-4.8427734375t0.320068359375-4.70361328125t0.25048828125-3.64599609375t0.1669921875-1.669921875q0.2783203125-0.80712890625,1.02978515625-0.960205078125t1.41943359375-0.153076171875q1.75341796875,0,2.156982421875,0.556640625t0.403564453125,2.2265625q0,6.09521484375-0.542724609375,12.134765625t-0.542724609375,12.134765625q0,3.92431640625,0.153076171875,7.890380859375t1.099365234375,7.806884765625l0.30615234375,0.2783203125l0.1669921875,0.5009765625l-0.41748046875,0.64013671875q-1.0576171875,0.66796875-2.44921875,0.66796875l-0.111328125,0q-1.41943359375,0-2.6162109375-0.66796875q-0.4453125-0.2783203125-0.737548828125-1.656005859375t-0.459228515625-3.03369140625t-0.25048828125-3.186767578125t-0.13916015625-2.1708984375q-0.97412109375,2.2265625-2.657958984375,3.826904296875t-4.244384765625,1.600341796875q-2.00390625,0-3.2841796875-0.86279296875t-1.989990234375-2.19873046875t-1.001953125-2.991943359375t-0.292236328125-3.298095703125z M104.164921875,117.95166015625q0,0.64013671875,0.153076171875,1.892578125t0.487060546875,2.5048828125t0.932373046875,2.2265625t1.572509765625,0.97412109375q1.30810546875-0.64013671875,2.36572265625-2.129150390625t1.822998046875-3.2841796875t1.19677734375-3.59033203125t0.431396484375-3.103271484375q0-1.64208984375-1.19677734375-2.7275390625t-2.86669921875-1.08544921875q-0.5009765625,0-1.015869140625,0.19482421875t-0.960205078125,0.4453125q-1.02978515625,0.97412109375-1.600341796875,1.767333984375t-0.86279296875,1.64208984375t-0.375732421875,1.878662109375t-0.08349609375,2.3935546875z M127.14499511719,118.11865234375q0-1.892578125,0.514892578125-3.64599609375t1.544677734375-3.131103515625t2.574462890625-2.19873046875t3.576416015625-0.821044921875q1.25244140625,0,2.769287109375,0.375732421875t2.852783203125,1.11328125t2.2265625,1.878662109375t0.890625,2.6162109375q0,0.69580078125-0.236572265625,1.0576171875t-0.960205078125,0.36181640625l-0.30615234375-0.0556640625q0.80712890625,2.1708984375,1.3916015625,4.453125t1.14111328125,4.564453125q0.22265625,0.4453125,0.333984375,0.793212890625t0.111328125,0.681884765625q0,0.4453125-0.25048828125,0.737548828125t-0.654052734375,0.431396484375t-0.8349609375,0.19482421875t-0.765380859375,0.0556640625q-1.19677734375,0-1.795166015625-0.41748046875t-0.86279296875-1.14111328125t-0.320068359375-1.628173828125t-0.22265625-1.822998046875q-0.333984375,1.08544921875-0.876708984375,2.115234375t-1.2802734375,1.850830078125t-1.739501953125,1.30810546875t-2.25439453125,0.487060546875q-1.8369140625,0-3.08935546875-1.0576171875t-2.017822265625-2.602294921875t-1.11328125-3.298095703125t-0.347900390625-3.25634765625z M131.09714355469,117.72900390625q0,1.02978515625,0.13916015625,2.1708984375t0.459228515625,2.25439453125t0.821044921875,2.101318359375t1.25244140625,1.739501953125q1.36376953125-1.47509765625,2.017822265625-3.59033203125t1.1689453125-4.077392578125t1.1689453125-3.36767578125t2.017822265625-1.405517578125q0.86279296875,0,1.447265625,0.30615234375q-0.2783203125-0.69580078125-0.91845703125-1.349853515625t-1.433349609375-1.19677734375t-1.64208984375-0.890625t-1.600341796875-0.347900390625q-0.22265625,0-0.514892578125,0.069580078125t-0.459228515625,0.013916015625q-1.14111328125,0.333984375-1.878662109375,1.155029296875t-1.19677734375,1.934326171875t-0.654052734375,2.2822265625t-0.19482421875,2.19873046875z"/><path fill="#" d=""/></svg>
